<svg width="555" height="371" viewBox="0 0 555 371" fill="none" xmlns="http://www.w3.org/2000/svg">
<path d="M290.628 312.513C145.822 312.513 28.4338 308.64 28.4338 303.862C28.4338 299.084 145.822 295.211 290.628 295.211C435.434 295.211 552.822 299.084 552.822 303.862C552.822 308.64 435.434 312.513 290.628 312.513Z" fill="#F5F5F5"/>
<path d="M304.365 257.394C303.409 247.276 304.366 236.544 309.806 227.958L343.18 238.946C349.265 244.041 354.368 250.676 356.154 258.407C357.942 266.138 355.911 275.011 349.863 280.149C353.282 282.802 356.282 286.123 357.971 290.109C359.657 294.094 359.919 298.794 358.086 302.713C357.067 304.894 355.158 306.916 352.755 307.052C349.988 307.208 347.776 304.922 345.871 302.911C335.882 292.37 323.302 284.621 312.87 274.517C310.202 271.932 307.629 269.123 306.169 265.709C305.049 263.091 304.633 260.229 304.365 257.394Z" fill="#EC633C"/>
<path d="M245.065 253.647C243.284 265.66 233.935 275.664 222.801 280.515C211.667 285.366 199.01 285.657 186.998 283.853C194.095 292.356 205.578 296.983 216.588 295.778C212.764 297.172 208.737 298.006 204.673 298.245C210.028 302.371 217.214 303.289 223.964 302.928C245.162 301.794 260.67 286.165 257.741 259.967" fill="#EC633C"/>
<path d="M263.493 135.549C260.972 191.68 218.876 274.646 264.05 288.063C309.224 301.481 357.161 279.253 351.274 216.173C347.255 173.103 346.739 159.057 352.203 142.404C357.667 125.752 263.491 135.551 263.491 135.551L263.493 135.549Z" fill="#EC633C"/>
<path d="M309.78 196.542C311.207 195.529 311.214 177.464 291.554 171.848C271.894 166.233 261.042 157.059 261.042 157.059C261.042 157.059 261.535 144.147 262.846 144.426C264.158 144.706 348.07 155.652 349.752 156.175C351.434 156.699 349.508 160.944 349.508 160.944C349.508 160.944 326.647 167.153 326.442 178.471C326.237 189.789 328.231 194.477 328.231 194.477L309.779 196.54L309.78 196.542Z" fill="#263238"/>
<path d="M317.78 68.6129C332.497 69.9213 374.398 97.5459 366.85 139.64C362.905 161.7 331.923 170.846 307.078 168.178C282.234 165.511 253.914 149.999 254.735 127.6C256.303 84.8626 303.093 66.7561 317.78 68.6129Z" fill="#EC633C"/>
<path d="M300.839 123.838C309.887 120.296 309.973 100.205 311.958 86.6831C312.464 84.5609 314.596 83.2529 316.716 83.7593C318.465 84.1778 319.711 85.7239 319.747 87.5213C318.807 101.152 314.632 120.799 322.744 126.184C334.652 134.126 356.09 128.246 354.227 144.271C352.361 160.296 330.979 169.032 307.341 166.507C283.705 163.982 264.663 150.892 266.259 134.83C267.854 118.768 287.453 129.029 300.835 123.838L300.839 123.838Z" fill="white"/>
<path d="M336.858 79.3026C342.879 84.4578 392.741 76.8839 406.332 85.657C419.923 94.4301 396.037 131.74 349.188 117.916C331.822 98.2519 336.856 79.3028 336.856 79.3028L336.858 79.3026Z" fill="#EC633C"/>
<path opacity="0.3" d="M344.4 93.0851C344.764 85.9176 392.954 80.4515 405.155 90.4127C416.192 99.4326 392.314 116.779 382.223 118.357C366.221 120.847 363.27 117.905 355.93 114.938C348.591 111.97 344.047 99.7602 344.4 93.0851Z" fill="white"/>
<path d="M308.416 71.5942C297.95 72.7642 268.6 32.9934 252.653 30.2851C233.099 26.9471 228.254 78.0509 276.865 94.7255C301.247 84.9656 308.416 71.5942 308.416 71.5942Z" fill="#EC633C"/>
<path opacity="0.3" d="M297.395 83.3039C302.081 77.8264 265.96 35.6587 250.257 34.5529C236.032 33.4939 241.463 62.5327 247.769 70.5979C257.703 83.3828 266.63 88.3594 274.018 91.2828C281.406 94.2062 293.064 88.4119 297.395 83.3039Z" fill="white"/>
<path d="M311.123 130.638C318.149 131.39 327.292 134.036 324.451 137.891C321.611 141.746 313.97 145.089 309.613 144.623C305.257 144.156 298.507 139.24 296.602 134.883C294.697 130.526 304.093 129.847 311.123 130.638Z" fill="#263238"/>
<path d="M308.938 144.514L310.248 144.655L309.688 149.864L308.379 149.723L308.938 144.514Z" fill="#263238"/>
<path d="M329.859 146.423C324.961 150.592 312.546 157.635 305.974 155.702C299.401 153.769 292.744 141.142 290.875 134.986C297.656 151.262 317.108 154.761 329.861 146.423L329.859 146.423Z" fill="#263238"/>
<path d="M320.701 149.272C321.686 148.916 322.36 148.814 322.718 149.798C322.735 149.846 322.751 149.897 322.765 149.947C324.684 156.569 325.527 165.058 314.098 165.197C304.334 165.308 304.931 155.943 305.738 151.56C305.916 150.524 306.894 149.824 307.934 149.989C309.868 150.232 311.826 150.218 313.757 149.947C315.977 149.773 318.582 149.952 320.701 149.272Z" fill="#EC633C"/>
<path opacity="0.3" d="M315.908 159.96C316.408 158.274 315.554 152.052 314.762 149.703L313.482 150.111C314.285 152.67 314.949 158.372 314.542 159.597L315.908 159.96Z" fill="#263238"/>
<path d="M312.769 150.888C318.885 151.147 326.249 149.598 330.252 146.249C331.325 146.654 332.224 147.418 332.796 148.412L333.992 147.856C333.211 146.417 331.9 145.335 330.338 144.844L329.975 144.709L329.687 144.974C324.936 149.227 314.418 150.549 308.189 148.889C301.96 147.23 293.494 140.852 291.496 134.784L291.38 134.424L290.986 134.407C289.402 134.063 287.745 134.337 286.355 135.174L287.114 136.246C288.102 135.673 289.255 135.457 290.381 135.634C292.749 141.966 301.421 148.499 307.845 150.206C309.458 150.611 311.107 150.839 312.769 150.888Z" fill="#263238"/>
<path d="M340.202 184.575C340.202 184.575 281.743 214.519 260.509 160.128L255.23 183.29C255.23 183.29 263.435 207.94 294.724 211.831C341.509 217.649 358.743 197.287 358.743 197.287L340.204 184.574L340.202 184.575Z" fill="#263238"/>
<path opacity="0.3" d="M351.426 217.965C351.426 217.965 343.535 215.096 342.598 210.006C341.66 204.917 341.712 202.084 341.712 202.084C341.712 202.084 331.015 184.054 331.977 181.667C332.192 181.13 349.615 200.675 349.941 201.377C350.266 202.079 351.427 217.966 351.427 217.966L351.426 217.965Z" fill="black"/>
<path d="M349.509 160.946C358.942 167.482 370.534 193.447 368.83 202.142C377.799 212.69 375.487 218.553 365.021 219.378C354.555 220.204 345.924 209.591 346.645 204.066C347.365 198.54 328.799 186.614 331.625 175.528C333.773 167.129 342.887 156.347 349.507 160.944L349.509 160.946Z" fill="#EC633C"/>
<path d="M364.35 220.13C364.489 220.114 364.621 220.059 364.729 219.968C366.528 218.297 364.977 212.946 363.205 209.885C363.058 209.553 362.67 209.401 362.336 209.549C362.004 209.696 361.853 210.085 362.001 210.418C362.021 210.461 362.044 210.504 362.074 210.543C364.015 213.929 364.717 218.195 363.826 218.997C363.562 219.247 363.549 219.663 363.797 219.927C363.939 220.078 364.144 220.153 364.35 220.13Z" fill="#263238"/>
<path d="M371.694 218.288C371.883 218.265 372.055 218.163 372.166 218.009C373.514 216.098 371.504 210.785 368.96 207.929C368.717 207.657 368.299 207.631 368.027 207.874C367.754 208.116 367.729 208.534 367.973 208.806C370.379 211.491 371.878 216.132 371.09 217.253C370.866 217.529 370.906 217.937 371.182 218.161L371.193 218.169C371.336 218.277 371.519 218.319 371.695 218.284L371.694 218.288Z" fill="#263238"/>
<path opacity="0.3" d="M298.505 182.475C304.869 192.004 303.412 209.859 298.675 217.369C303.198 230.454 298.02 238.681 287.957 235.646C277.895 232.611 270.558 218.223 273.243 213.339C275.93 208.455 275.464 186.082 282.207 180.627C288.949 175.17 293.995 175.785 298.505 182.474L298.505 182.475Z" fill="black"/>
<path d="M296.114 178.001C302.478 187.53 300.121 208.987 295.383 216.499C299.906 229.584 295.627 234.209 285.566 231.174C275.504 228.139 271.333 215.12 274.02 210.236C276.706 205.352 267.559 181.948 274.301 176.492C281.043 171.035 291.605 171.311 296.114 178.001Z" fill="#EC633C"/>
<path d="M284.912 231.632L285.081 231.613C287.365 230.708 287.856 225.157 287.333 221.664C287.256 221.32 286.935 221.083 286.582 221.112C286.223 221.166 285.976 221.503 286.03 221.862C286.613 225.772 285.716 229.952 284.599 230.395C284.266 230.522 284.098 230.894 284.222 231.226L284.229 231.244C284.346 231.508 284.621 231.666 284.908 231.632L284.912 231.632Z" fill="#263238"/>
<path d="M292.425 232.58C292.529 232.568 292.631 232.53 292.716 232.468C294.678 231.176 294.732 225.488 293.392 221.915C293.271 221.581 292.901 221.407 292.567 221.528L292.555 221.533C292.216 221.657 292.038 222.031 292.16 222.371C293.426 225.753 293.082 230.626 292 231.371C291.692 231.565 291.599 231.971 291.794 232.279C291.929 232.492 292.174 232.611 292.426 232.581L292.425 232.58Z" fill="#263238"/>
<g opacity="0.3">
<path d="M254.169 267.478C253.345 258.747 254.17 249.486 258.864 242.078L287.662 251.56C292.912 255.955 297.315 261.681 298.858 268.352C300.399 275.023 298.648 282.679 293.43 287.113C295.135 288.436 296.717 289.951 298.033 291.658L282.53 293.391L261.509 282.252C259.206 280.022 256.988 277.599 255.726 274.652C254.761 272.393 254.4 269.924 254.171 267.477L254.169 267.478Z" fill="black"/>
</g>
<path d="M243.805 264.164C242.849 254.046 243.805 243.314 249.246 234.728L282.619 245.716C288.704 250.811 293.808 257.446 295.594 265.177C297.381 272.908 295.35 281.781 289.303 286.919C292.721 289.572 295.721 292.893 297.41 296.879C299.097 300.864 299.358 305.564 297.525 309.483C296.506 311.664 294.598 313.686 292.194 313.822C289.428 313.978 287.216 311.692 285.311 309.681C275.322 299.14 262.742 291.391 252.309 281.287C249.642 278.702 247.069 275.893 245.609 272.479C244.489 269.861 244.073 266.999 243.805 264.164Z" fill="#EC633C"/>
<path opacity="0.3" d="M254.543 283.456C254.543 283.456 247.528 278.232 243.515 259.608L239.994 266.413C239.994 266.413 238.764 280.816 250.958 289.52C252.546 287.698 253.681 285.646 254.543 283.456Z" fill="black"/>
<path d="M298.06 111.757C296.67 112.567 296.431 114.757 297.534 116.651C297.591 116.749 297.65 116.843 297.714 116.933C296.977 117.15 296.215 117.192 295.462 117.018C292.422 116.315 290.733 112.392 291.688 108.261C292.644 104.13 295.885 101.347 298.925 102.05C301.965 102.753 303.654 106.677 302.699 110.808C302.527 111.548 302.281 112.248 301.976 112.89C300.838 111.589 299.228 111.078 298.06 111.757Z" fill="url(#paint0_linear_1171_2059)"/>
<path d="M296.325 107.311C297.715 106.501 297.954 104.312 296.851 102.417C296.793 102.319 296.735 102.226 296.671 102.135C297.407 101.918 298.17 101.876 298.923 102.05C301.963 102.754 303.652 106.677 302.697 110.808C301.741 114.939 298.5 117.721 295.46 117.018C292.42 116.315 290.731 112.392 291.686 108.261C291.857 107.521 292.104 106.821 292.409 106.178C293.546 107.479 295.157 107.99 296.325 107.311Z" fill="url(#paint1_linear_1171_2059)"/>
<path d="M331.768 115.908C330.609 117.024 330.895 119.208 332.416 120.787C332.495 120.869 332.574 120.946 332.657 121.019C331.993 121.404 331.262 121.625 330.49 121.635C327.37 121.671 324.799 118.26 324.749 114.02C324.699 109.78 327.189 106.309 330.309 106.273C333.429 106.236 336 109.647 336.05 113.887C336.059 114.646 335.985 115.385 335.841 116.081C334.427 115.087 332.742 114.972 331.768 115.908Z" fill="url(#paint2_linear_1171_2059)"/>
<path d="M329.031 112C330.19 110.884 329.903 108.7 328.383 107.12C328.304 107.039 328.225 106.962 328.142 106.889C328.806 106.504 329.536 106.282 330.309 106.273C333.429 106.236 336 109.648 336.05 113.888C336.099 118.127 333.61 121.598 330.49 121.635C327.37 121.672 324.799 118.26 324.749 114.021C324.74 113.261 324.814 112.523 324.958 111.827C326.371 112.821 328.057 112.936 329.031 112Z" fill="url(#paint3_linear_1171_2059)"/>
<path d="M356.009 160.535C356.009 160.535 355.295 156.852 360.651 152.587C366.006 148.322 373.204 144.578 374.656 135.309L383.024 138.318L371.803 158.919L356.009 160.535Z" fill="#C3BDDD"/>
<path opacity="0.75" d="M356.009 160.535C356.009 160.535 355.295 156.852 360.651 152.587C366.006 148.322 373.204 144.578 374.656 135.309L383.024 138.318L371.803 158.919L356.009 160.535Z" fill="white"/>
<path d="M356.01 160.535C356.01 160.535 346.908 157.811 328.3 163.269C309.693 168.727 294.634 174.782 258.062 178.176L268.054 181.773L362.284 166.514L356.01 160.535Z" fill="#C3BDDD"/>
<path opacity="0.75" d="M356.01 160.535C356.01 160.535 346.908 157.811 328.3 163.269C309.693 168.727 294.634 174.782 258.062 178.176L268.054 181.773L362.284 166.514L356.01 160.535Z" fill="white"/>
<path d="M258.062 178.176L234.551 274.687L244.543 278.284L268.054 181.773L258.062 178.176Z" fill="#C3BDDD"/>
<path opacity="0.8" d="M258.062 178.176L234.551 274.687L244.543 278.284L268.054 181.773L258.062 178.176Z" fill="white"/>
<path opacity="0.1" d="M258.062 178.176L234.551 274.687L244.543 278.284L268.054 181.773L258.062 178.176Z" fill="black"/>
<g opacity="0.1">
<path d="M375.198 140.294C374.528 142.331 373.401 144.25 371.883 145.945C370.349 147.642 368.691 149.255 366.918 150.775C365.125 152.219 363.492 153.801 362.042 155.5C361.364 156.33 360.814 157.229 360.405 158.173C360.02 159.079 359.891 160.043 360.028 160.984L358.89 161.261C358.742 160.131 358.933 158.977 359.445 157.907C359.909 156.886 360.528 155.918 361.285 155.029C362.841 153.344 364.577 151.786 366.471 150.376C368.291 148.937 370.009 147.406 371.615 145.793C373.207 144.163 374.424 142.295 375.198 140.294Z" fill="black"/>
<path d="M374.27 145.688C373.591 146.937 372.73 148.111 371.707 149.182C370.725 150.286 369.712 151.35 368.756 152.462C367.796 153.557 366.959 154.724 366.255 155.948C365.56 157.118 365.187 158.4 365.165 159.694L363.984 159.697C364.12 158.27 364.63 156.876 365.476 155.618C366.295 154.409 367.245 153.265 368.312 152.202C369.349 151.134 370.442 150.114 371.481 149.068C372.573 148.044 373.511 146.908 374.27 145.688Z" fill="black"/>
<path d="M294.632 174.783C299.773 173.802 304.856 172.581 309.858 171.124C314.875 169.676 319.807 168.035 324.772 166.464C329.744 164.838 334.891 163.678 340.121 163.006C342.745 162.642 345.389 162.435 348.033 162.389C349.368 162.364 350.699 162.43 352.014 162.585C353.405 162.72 354.735 163.111 355.913 163.731L355.186 164.539C354.167 163.996 353.019 163.643 351.815 163.505C350.561 163.344 349.292 163.26 348.017 163.256C345.425 163.263 342.831 163.424 340.253 163.739C335.045 164.321 329.909 165.394 324.938 166.937C319.951 168.425 314.973 169.997 309.935 171.362C304.902 172.739 299.793 173.881 294.632 174.783Z" fill="black"/>
<path d="M319.637 171.582C322.541 170.915 325.376 170.074 328.24 169.273C331.104 168.472 333.971 167.692 336.876 167.036C339.789 166.336 342.755 165.833 345.745 165.531C348.782 165.187 351.848 165.323 354.788 165.931L354.418 166.892C351.63 166.234 348.705 166.025 345.79 166.274C342.836 166.492 339.899 166.906 337.005 167.513C334.091 168.095 331.203 168.792 328.322 169.553C325.44 170.313 322.559 170.956 319.637 171.582Z" fill="black"/>
</g>
<path d="M382.531 133.68L369.446 158.071L344.215 261.562L349.216 263.354L361.704 233.846L387.507 135.465L382.531 133.68Z" fill="#C3BDDD"/>
<path opacity="0.2" d="M374.436 159.876L387.506 135.465L361.703 233.846L349.216 263.355L374.436 159.876Z" fill="black"/>
<path d="M354.723 167.467L261.844 183.012L236.611 286.492L241.613 288.285L334.491 272.739L359.712 169.26L354.723 167.467Z" fill="#C3BDDD"/>
<path opacity="0.2" d="M266.834 184.806L241.613 288.285L334.492 272.739L359.712 169.26L266.834 184.806Z" fill="black"/>
<path d="M257.544 281.822C257.455 281.83 257.367 281.822 257.284 281.798C257.201 281.774 257.125 281.735 257.063 281.683C257 281.625 256.954 281.555 256.928 281.478C256.902 281.402 256.897 281.32 256.913 281.24C257.114 280.415 257.079 279.568 256.811 278.772C256.542 277.975 256.048 277.253 255.372 276.668C254.696 276.083 253.857 275.653 252.928 275.414C251.999 275.175 251.008 275.134 250.04 275.296C249.946 275.31 249.85 275.305 249.76 275.282C249.67 275.258 249.589 275.217 249.522 275.162C249.454 275.106 249.405 275.036 249.379 274.959C249.353 274.881 249.35 274.799 249.372 274.719L268.563 196.007C268.587 195.909 268.644 195.817 268.728 195.745C268.812 195.673 268.918 195.623 269.033 195.602C271.567 195.172 273.917 194.104 275.776 192.536C277.635 190.968 278.915 188.975 279.451 186.816C279.475 186.716 279.534 186.623 279.62 186.551C279.707 186.478 279.816 186.429 279.933 186.409L343.744 175.727C343.838 175.713 343.934 175.718 344.023 175.742C344.113 175.765 344.195 175.806 344.262 175.862C344.327 175.918 344.375 175.988 344.401 176.065C344.427 176.142 344.431 176.225 344.412 176.305C344.204 177.13 344.236 177.979 344.505 178.777C344.773 179.575 345.271 180.296 345.954 180.878C346.622 181.472 347.46 181.909 348.391 182.148C349.322 182.387 350.317 182.422 351.285 182.249C351.379 182.232 351.476 182.236 351.566 182.259C351.657 182.283 351.738 182.326 351.803 182.383C351.87 182.439 351.92 182.509 351.946 182.586C351.972 182.664 351.974 182.746 351.953 182.826L332.774 261.537C332.748 261.636 332.688 261.728 332.603 261.8C332.517 261.873 332.408 261.922 332.292 261.943C329.759 262.375 327.411 263.445 325.553 265.012C323.694 266.579 322.412 268.571 321.874 270.729C321.851 270.83 321.793 270.923 321.706 270.996C321.62 271.069 321.51 271.118 321.392 271.136L257.581 281.818L257.544 281.822ZM250.685 274.208C251.714 274.141 252.74 274.261 253.695 274.561C254.65 274.862 255.511 275.335 256.221 275.95C256.931 276.565 257.474 277.307 257.812 278.127C258.151 278.946 258.278 279.825 258.185 280.703L320.824 270.216C321.455 267.987 322.817 265.937 324.748 264.309C326.678 262.682 329.095 261.545 331.712 261.035L350.677 183.332C349.647 183.402 348.62 183.283 347.663 182.983C346.707 182.683 345.845 182.21 345.133 181.595C344.422 180.981 343.878 180.238 343.538 179.418C343.199 178.598 343.071 177.718 343.164 176.839L280.538 187.325C279.904 189.553 278.541 191.602 276.611 193.229C274.681 194.856 272.265 195.993 269.649 196.506L250.685 274.208Z" fill="#FAFAFA"/>
<path opacity="0.3" d="M261.845 183.012L266.834 184.806L241.613 288.285L236.612 286.492L261.845 183.012Z" fill="black"/>
<path d="M359.711 169.261L374.423 159.877L349.202 263.356C347.381 268.99 342.299 271.984 334.478 272.741L359.711 169.261Z" fill="#C3BDDD"/>
<path opacity="0.3" d="M359.711 169.261L374.423 159.877L349.202 263.356C347.117 269.329 341.86 272.108 334.478 272.741L359.711 169.261Z" fill="black"/>
<path d="M368.884 157.877C365.83 156.754 360.094 157.941 356.01 160.535C351.926 163.13 351.13 166.126 354.184 167.249L359.712 169.26L374.425 159.877L369.434 158.072L368.884 157.877Z" fill="#455A64"/>
<path d="M353.946 192.887C359.567 192.355 365.595 191.071 367.872 186.819L370.384 176.576C367.414 180.927 363.177 183.496 356.144 184.111L353.946 192.887Z" fill="#E0E0E0"/>
<path d="M369.446 158.071C368.955 161.995 363.486 165.022 354.723 167.466L359.712 169.26C367.3 167.653 372.069 164.448 374.436 159.875L369.446 158.071Z" fill="#C3BDDD"/>
<path d="M277.579 223.492C273.596 232.734 263.749 238.343 248.134 239.259C246.186 239.375 243.097 239.521 239.261 239.633C235.426 239.745 233.217 220.559 237.768 219.293C242.319 218.028 245.518 211.417 249.933 208.937L248.092 218.139C248.092 218.139 254.277 217.301 268.399 209.69C281.708 202.527 281.562 214.251 277.579 223.492Z" fill="#EC633C"/>
<path d="M374.574 184.381C373.091 181.34 369.572 187.752 368.748 197.026C367.968 205.899 366.574 215.237 366.574 215.237L364.582 222.942C364.582 222.942 370.926 218.641 375.338 208.304C379.75 197.966 378.777 192.965 374.574 184.381Z" fill="#EC633C"/>
<defs>
<linearGradient id="paint0_linear_1171_2059" x1="295.461" y1="117.02" x2="298.924" y2="102.049" gradientUnits="userSpaceOnUse">
<stop offset="1" stop-color="white"/>
</linearGradient>
<linearGradient id="paint1_linear_1171_2059" x1="298.923" y1="102.049" x2="295.46" y2="117.019" gradientUnits="userSpaceOnUse">
<stop stop-color="#424242"/>
<stop offset="1" stop-color="#212121"/>
</linearGradient>
<linearGradient id="paint2_linear_1171_2059" x1="330.49" y1="121.636" x2="330.308" y2="106.271" gradientUnits="userSpaceOnUse">
<stop offset="1" stop-color="white"/>
</linearGradient>
<linearGradient id="paint3_linear_1171_2059" x1="330.309" y1="106.271" x2="330.49" y2="121.636" gradientUnits="userSpaceOnUse">
<stop stop-color="#424242"/>
<stop offset="1" stop-color="#212121"/>
</linearGradient>
</defs>
</svg>
